<?xml version="1.0" standalone="no"?>
<!DOCTYPE svg PUBLIC "-//W3C//DTD SVG 20010904//EN"
 "http://www.w3.org/TR/2001/REC-SVG-20010904/DTD/svg10.dtd">
<svg version="1.0" xmlns="http://www.w3.org/2000/svg"
 width="1023.000000pt" height="1023.000000pt" viewBox="0 0 1023.000000 1023.000000"
 preserveAspectRatio="xMidYMid meet">

<g transform="translate(0.000000,1023.000000) scale(0.100000,-0.100000)"
fill="#000000" stroke="none">
<path d="M330 8745 l0 -1155 1155 0 1155 0 0 1155 0 1155 -1155 0 -1155 0 0
-1155z m1980 0 l0 -825 -825 0 -825 0 0 825 0 825 825 0 825 0 0 -825z"/>
<path d="M990 8745 l0 -495 495 0 495 0 0 495 0 495 -495 0 -495 0 0 -495z"/>
<path d="M2970 9735 l0 -165 165 0 165 0 0 -165 0 -165 -165 0 -165 0 0 -495
0 -495 165 0 165 0 0 165 0 165 330 0 330 0 0 -165 0 -165 -165 0 -165 0 0
-825 0 -825 -165 0 -165 0 0 330 0 330 -165 0 -165 0 0 -330 0 -330 -330 0
-330 0 0 -165 0 -165 330 0 330 0 0 165 0 165 165 0 165 0 0 -495 0 -495 -165
0 -165 0 0 165 0 165 -495 0 -495 0 0 165 0 165 -165 0 -165 0 0 165 0 165
165 0 165 0 0 165 0 165 -165 0 -165 0 0 165 0 165 -660 0 -660 0 0 -165 0
-165 165 0 165 0 0 -165 0 -165 -165 0 -165 0 0 -330 0 -330 165 0 165 0 0
-330 0 -330 -165 0 -165 0 0 -165 0 -165 495 0 495 0 0 -330 0 -330 165 0 165
0 0 -330 0 -330 660 0 660 0 0 165 0 165 330 0 330 0 0 165 0 165 165 0 165 0
0 165 0 165 165 0 165 0 0 -165 0 -165 165 0 165 0 0 165 0 165 -165 0 -165 0
0 330 0 330 165 0 165 0 0 -165 0 -165 165 0 165 0 0 -495 0 -495 -165 0 -165
0 0 -495 0 -495 825 0 825 0 0 -165 0 -165 -330 0 -330 0 0 -495 0 -495 -165
0 -165 0 0 -165 0 -165 -165 0 -165 0 0 165 0 165 -165 0 -165 0 0 -165 0
-165 -165 0 -165 0 0 330 0 330 495 0 495 0 0 330 0 330 -165 0 -165 0 0 -165
0 -165 -495 0 -495 0 0 -165 0 -165 -330 0 -330 0 0 -165 0 -165 -165 0 -165
0 0 -660 0 -660 165 0 165 0 0 165 0 165 165 0 165 0 0 165 0 165 -165 0 -165
0 0 330 0 330 165 0 165 0 0 -165 0 -165 330 0 330 0 0 -330 0 -330 -165 0
-165 0 0 -165 0 -165 165 0 165 0 0 165 0 165 330 0 330 0 0 165 0 165 165 0
165 0 0 -330 0 -330 165 0 165 0 0 165 0 165 165 0 165 0 0 165 0 165 -330 0
-330 0 0 165 0 165 495 0 495 0 0 -165 0 -165 165 0 165 0 0 -165 0 -165 -165
0 -165 0 0 -165 0 -165 495 0 495 0 0 330 0 330 165 0 165 0 0 330 0 330 330
0 330 0 0 -165 0 -165 -165 0 -165 0 0 -330 0 -330 165 0 165 0 0 330 0 330
330 0 330 0 0 -165 0 -165 -165 0 -165 0 0 -330 0 -330 165 0 165 0 0 330 0
330 165 0 165 0 0 -330 0 -330 165 0 165 0 0 330 0 330 165 0 165 0 0 330 0
330 -165 0 -165 0 0 -330 0 -330 -165 0 -165 0 0 165 0 165 -165 0 -165 0 0
165 0 165 165 0 165 0 0 165 0 165 -165 0 -165 0 0 330 0 330 165 0 165 0 0
-165 0 -165 165 0 165 0 0 165 0 165 165 0 165 0 0 165 0 165 -330 0 -330 0 0
495 0 495 165 0 165 0 0 495 0 495 165 0 165 0 0 330 0 330 -330 0 -330 0 0
165 0 165 -330 0 -330 0 0 495 0 495 330 0 330 0 0 165 0 165 -495 0 -495 0 0
-165 0 -165 -330 0 -330 0 0 165 0 165 -165 0 -165 0 0 -165 0 -165 -330 0
-330 0 0 165 0 165 -165 0 -165 0 0 165 0 165 165 0 165 0 0 165 0 165 165 0
165 0 0 -165 0 -165 165 0 165 0 0 330 0 330 -165 0 -165 0 0 165 0 165 165 0
165 0 0 330 0 330 -330 0 -330 0 0 -165 0 -165 -330 0 -330 0 0 495 0 495
-165 0 -165 0 0 -495 0 -495 -330 0 -330 0 0 165 0 165 -165 0 -165 0 0 330 0
330 -165 0 -165 0 0 -165 0 -165 -165 0 -165 0 0 165 0 165 -165 0 -165 0 0
-165 0 -165 -165 0 -165 0 0 165 0 165 -165 0 -165 0 0 -165z m1650 -660 l0
-165 -165 0 -165 0 0 -165 0 -165 -165 0 -165 0 0 330 0 330 330 0 330 0 0
-165z m1320 -330 l0 -165 330 0 330 0 0 165 0 165 165 0 165 0 0 -165 0 -165
-165 0 -165 0 0 -165 0 -165 -330 0 -330 0 0 165 0 165 -165 0 -165 0 0 165 0
165 165 0 165 0 0 -165z m-990 -330 l0 -165 -165 0 -165 0 0 -165 0 -165 165
0 165 0 0 -165 0 -165 165 0 165 0 0 330 0 330 165 0 165 0 0 -330 0 -330
-165 0 -165 0 0 -330 0 -330 165 0 165 0 0 -330 0 -330 330 0 330 0 0 165 0
165 -165 0 -165 0 0 165 0 165 165 0 165 0 0 -165 0 -165 825 0 825 0 0 -330
0 -330 330 0 330 0 0 -165 0 -165 165 0 165 0 0 -330 0 -330 165 0 165 0 0
-330 0 -330 -165 0 -165 0 0 165 0 165 -165 0 -165 0 0 330 0 330 -165 0 -165
0 0 165 0 165 -330 0 -330 0 0 -330 0 -330 165 0 165 0 0 -165 0 -165 165 0
165 0 0 -165 0 -165 165 0 165 0 0 -165 0 -165 165 0 165 0 0 -330 0 -330
-660 0 -660 0 0 165 0 165 330 0 330 0 0 330 0 330 -165 0 -165 0 0 -165 0
-165 -330 0 -330 0 0 -330 0 -330 -165 0 -165 0 0 -330 0 -330 -165 0 -165 0
0 660 0 660 -165 0 -165 0 0 -165 0 -165 -165 0 -165 0 0 165 0 165 -165 0
-165 0 0 165 0 165 -165 0 -165 0 0 165 0 165 330 0 330 0 0 165 0 165 165 0
165 0 0 495 0 495 -165 0 -165 0 0 -165 0 -165 -330 0 -330 0 0 165 0 165
-165 0 -165 0 0 -330 0 -330 330 0 330 0 0 -165 0 -165 -330 0 -330 0 0 165 0
165 -165 0 -165 0 0 330 0 330 -165 0 -165 0 0 -165 0 -165 -165 0 -165 0 0
-495 0 -495 -165 0 -165 0 0 -165 0 -165 -165 0 -165 0 0 165 0 165 165 0 165
0 0 495 0 495 165 0 165 0 0 330 0 330 495 0 495 0 0 495 0 495 -165 0 -165 0
0 330 0 330 -165 0 -165 0 0 -330 0 -330 -165 0 -165 0 0 330 0 330 165 0 165
0 0 165 0 165 165 0 165 0 0 165 0 165 165 0 165 0 0 -165z m1320 -660 l0
-165 -165 0 -165 0 0 165 0 165 165 0 165 0 0 -165z m-4620 -990 l0 -165 -165
0 -165 0 0 165 0 165 165 0 165 0 0 -165z m2640 0 l0 -165 -165 0 -165 0 0
165 0 165 165 0 165 0 0 -165z m-3300 -330 l0 -165 165 0 165 0 0 -165 0 -165
330 0 330 0 0 -165 0 -165 330 0 330 0 0 -165 0 -165 330 0 330 0 0 -165 0
-165 -330 0 -330 0 0 -165 0 -165 -165 0 -165 0 0 -165 0 -165 165 0 165 0 0
-165 0 -165 -330 0 -330 0 0 165 0 165 -165 0 -165 0 0 165 0 165 165 0 165 0
0 165 0 165 -165 0 -165 0 0 165 0 165 -165 0 -165 0 0 165 0 165 -165 0 -165
0 0 165 0 165 -165 0 -165 0 0 330 0 330 165 0 165 0 0 -165z m7260 -3960 l0
-495 -495 0 -495 0 0 495 0 495 495 0 495 0 0 -495z m-1320 -495 l0 -330 -165
0 -165 0 0 -165 0 -165 330 0 330 0 0 -165 0 -165 -330 0 -330 0 0 165 0 165
-165 0 -165 0 0 330 0 330 -165 0 -165 0 0 165 0 165 495 0 495 0 0 -330z
m1980 -165 l0 -165 -165 0 -165 0 0 165 0 165 165 0 165 0 0 -165z m-3960
-660 l0 -165 -165 0 -165 0 0 165 0 165 165 0 165 0 0 -165z"/>
<path d="M5280 6105 l0 -165 165 0 165 0 0 165 0 165 -165 0 -165 0 0 -165z"/>
<path d="M6270 6105 l0 -165 330 0 330 0 0 165 0 165 -330 0 -330 0 0 -165z"/>
<path d="M6600 5280 l0 -330 165 0 165 0 0 -165 0 -165 -330 0 -330 0 0 -165
0 -165 330 0 330 0 0 -165 0 -165 165 0 165 0 0 165 0 165 165 0 165 0 0 165
0 165 -165 0 -165 0 0 330 0 330 -165 0 -165 0 0 165 0 165 -165 0 -165 0 0
-330z"/>
<path d="M1980 5115 l0 -165 330 0 330 0 0 165 0 165 -330 0 -330 0 0 -165z"/>
<path d="M7590 2475 l0 -165 165 0 165 0 0 165 0 165 -165 0 -165 0 0 -165z"/>
<path d="M4950 9735 l0 -165 165 0 165 0 0 165 0 165 -165 0 -165 0 0 -165z"/>
<path d="M6600 9735 l0 -165 330 0 330 0 0 165 0 165 -330 0 -330 0 0 -165z"/>
<path d="M7590 8745 l0 -1155 1155 0 1155 0 0 1155 0 1155 -1155 0 -1155 0 0
-1155z m1980 0 l0 -825 -825 0 -825 0 0 825 0 825 825 0 825 0 0 -825z"/>
<path d="M8250 8745 l0 -495 495 0 495 0 0 495 0 495 -495 0 -495 0 0 -495z"/>
<path d="M2970 7755 l0 -165 165 0 165 0 0 165 0 165 -165 0 -165 0 0 -165z"/>
<path d="M2310 7095 l0 -165 165 0 165 0 0 165 0 165 -165 0 -165 0 0 -165z"/>
<path d="M9570 6930 l0 -330 -330 0 -330 0 0 -165 0 -165 330 0 330 0 0 -165
0 -165 165 0 165 0 0 165 0 165 -165 0 -165 0 0 165 0 165 165 0 165 0 0 330
0 330 -165 0 -165 0 0 -330z"/>
<path d="M330 4455 l0 -165 165 0 165 0 0 165 0 165 -165 0 -165 0 0 -165z"/>
<path d="M330 3795 l0 -165 165 0 165 0 0 165 0 165 -165 0 -165 0 0 -165z"/>
<path d="M990 3795 l0 -165 165 0 165 0 0 165 0 165 -165 0 -165 0 0 -165z"/>
<path d="M3630 3465 l0 -165 -165 0 -165 0 0 -165 0 -165 -165 0 -165 0 0 165
0 165 -330 0 -330 0 0 -165 0 -165 330 0 330 0 0 -165 0 -165 165 0 165 0 0
-165 0 -165 165 0 165 0 0 330 0 330 165 0 165 0 0 165 0 165 165 0 165 0 0
165 0 165 -330 0 -330 0 0 -165z"/>
<path d="M660 3135 l0 -165 165 0 165 0 0 165 0 165 -165 0 -165 0 0 -165z"/>
<path d="M1320 3135 l0 -165 330 0 330 0 0 165 0 165 -330 0 -330 0 0 -165z"/>
<path d="M330 1485 l0 -1155 1155 0 1155 0 0 1155 0 1155 -1155 0 -1155 0 0
-1155z m1980 0 l0 -825 -825 0 -825 0 0 825 0 825 825 0 825 0 0 -825z"/>
<path d="M990 1485 l0 -495 495 0 495 0 0 495 0 495 -495 0 -495 0 0 -495z"/>
</g>
</svg>
